# xmcd
#
# Track frame offsets:
#	150
#	16182
#	32668
#	50154
#	67900
#	85121
#	103131
#	118736
#	135978
#	154564
#	172066
#	186404
#	203281
#	219661
#
# Disc length: 3154 seconds
#
# Revision: 0
# Processed by: cddbd v1.5.2PL0 Copyright (c) Steve Scherf et al.
# Submitted via: EasyCDDAExtractor 12.0.1.1
#
DISCID=ba0c500e
DTITLE=Debbie Nunn - Here For You
DYEAR=2009
DGENRE=Country
TTITLE0=Look So Good
TTITLE1=Bubbles
TTITLE2=Say Something Good
TTITLE3=Here For You
TTITLE4=God Only Knows
TTITLE5=Who's Sleeping In Your Bed
TTITLE6=Hey Girlfriend
TTITLE7=If Love Can Move Mountains
TTITLE8=Fall In Love Again
TTITLE9=Summer Sun
TTITLE10=Road To Love
TTITLE11=Ain't Going Out Tonight
TTITLE12=She Won't Love You
TTITLE13=Wanna Make Love To Me
EXTD=
EXTT0=
EXTT1=
EXTT2=
EXTT3=
EXTT4=
EXTT5=
EXTT6=
EXTT7=
EXTT8=
EXTT9=
EXTT10=
EXTT11=
EXTT12=
EXTT13=
PLAYORDER=
